<?xml version="1.0" encoding="UTF-8"?>
<svg width="140px" height="30px" viewBox="0 0 140 30" version="1.1" xmlns="http://www.w3.org/2000/svg" xmlns:xlink="http://www.w3.org/1999/xlink">
    <!-- Generator: Sketch 47.1 (45422) - http://www.bohemiancoding.com/sketch -->
    <title>logo_color</title>
    <desc>Created with Sketch.</desc>
    <defs></defs>
    <g id="Symbols" stroke="none" stroke-width="1" fill="none" fill-rule="evenodd">
        <g id="logo/full/logo-base-color" fill-rule="nonzero">
            <g id="logo_color">
                <g id="text" transform="translate(23.000000, 10.000000)">
                    <path d="M10.346281,0 C15.6644628,0 20.0157025,4.275 20.0157025,9.5 C20.0157025,14.725 15.761157,19 10.346281,19 C5.02809917,19 0.676859504,14.82 0.676859504,9.5 C0.676859504,4.18 4.93140496,0 10.346281,0 Z M10.346281,14.725 C13.2471074,14.725 15.6644628,12.35 15.6644628,9.5 C15.6644628,6.555 13.2471074,4.18 10.346281,4.18 C7.44545455,4.18 5.02809917,6.555 5.02809917,9.5 C4.93140496,12.35 7.34876033,14.725 10.346281,14.725 Z" id="Shape" fill="#354750"></path>
                    <path d="M21.6595041,8.645 C21.6595041,8.36 21.8528926,8.17 22.1429752,8.17 L23.4,8.17 C23.6900826,8.17 23.7867769,8.36 23.8834711,8.455 L24.3669421,9.595 C24.9471074,8.835 25.9140496,7.885 27.2677686,7.885 C28.7181818,7.885 29.7818182,8.455 29.3950413,9.025 L28.0413223,11.115 C27.9446281,11.305 27.7512397,11.495 27.461157,11.305 C27.3644628,11.21 27.0743802,11.21 26.7842975,11.21 C26.0107438,11.21 25.3338843,11.78 25.3338843,12.73 L25.3338843,18.145 C25.3338843,18.43 25.1404959,18.62 24.753719,18.62 L22.046281,18.62 C21.7561983,18.62 21.5628099,18.43 21.5628099,18.145 L21.5628099,8.645 L21.6595041,8.645 Z" id="Shape" fill="#354750"></path>
                    <path d="M35.1,7.885 C35.9702479,7.885 37.0338843,8.17 37.3239669,8.36 L37.3239669,0.76 C37.3239669,0.475 37.5173554,0.285 37.807438,0.285 L40.8049587,0.285 C41.0950413,0.285 41.2884298,0.475 41.2884298,0.76 L41.2884298,18.24 C41.2884298,18.525 41.0950413,18.715 40.8049587,18.715 L39.5479339,18.715 C39.2578512,18.715 39.0644628,18.525 38.9677686,18.145 L38.677686,17.29 C38.677686,17.29 37.4206612,18.905 35.1,18.905 C32.1024793,18.905 29.7818182,16.435 29.7818182,13.395 C29.7818182,9.69 32.1991736,7.885 35.1,7.885 Z M35.5834711,15.58 C36.8404959,15.58 37.7107438,14.63 37.7107438,13.395 C37.7107438,12.255 36.8404959,11.305 35.5834711,11.305 C34.3264463,11.305 33.4561983,12.255 33.4561983,13.395 C33.4561983,14.63 34.3264463,15.58 35.5834711,15.58 Z" id="Shape" fill="#354750"></path>
                    <path d="M48.6371901,7.885 C51.3446281,7.885 53.7619835,9.975 53.7619835,12.825 C53.7619835,13.015 53.7619835,13.395 53.6652893,13.49 C53.6652893,13.775 53.3752066,13.965 53.1818182,13.965 L46.7033058,13.965 C46.8,14.63 47.3801653,15.675 48.7338843,15.675 C49.4107438,15.675 50.1842975,15.39 50.5710744,15.01 C50.7644628,14.82 51.0545455,14.82 51.2479339,15.01 L52.6016529,16.625 C52.7950413,16.815 52.7950413,17.195 52.6016529,17.385 C51.6347107,18.335 50.2809917,18.905 48.6371901,18.905 C45.446281,18.905 43.0289256,16.435 43.0289256,13.395 C43.1256198,10.45 45.5429752,7.885 48.6371901,7.885 Z M49.9909091,11.97 C49.8942149,11.305 49.3140496,10.735 48.5404959,10.735 C47.8636364,10.735 47.1867769,11.305 47.0900826,11.97 L49.9909091,11.97 Z" id="Shape" fill="#354750"></path>
                    <path d="M65.6553719,0.475 C65.6553719,0.19 65.8487603,0 66.138843,0 L66.8157025,0 L77.5487603,10.07 L77.5487603,10.07 L77.5487603,0.76 C77.5487603,0.475 77.7421488,0.285 78.0322314,0.285 L81.2231405,0.285 C81.5132231,0.285 81.7066116,0.475 81.7066116,0.76 L81.7066116,18.525 C81.7066116,18.81 81.5132231,19 81.2231405,19 L80.8363636,19 C80.7396694,19 80.546281,18.905 80.4495868,18.905 L69.8132231,8.455 L69.8132231,8.455 L69.8132231,18.24 C69.8132231,18.525 69.6198347,18.715 69.3297521,18.715 L66.138843,18.715 C65.8487603,18.715 65.6553719,18.525 65.6553719,18.24 L65.6553719,0.475 Z" id="Shape" fill="#F16622"></path>
                    <path d="M89.3454545,7.885 C92.4396694,7.885 94.953719,10.45 94.953719,13.395 C94.953719,16.435 92.4396694,19 89.3454545,19 C86.2512397,19 83.7371901,16.435 83.7371901,13.395 C83.8338843,10.45 86.3479339,7.885 89.3454545,7.885 Z M89.3454545,15.58 C90.5057851,15.58 91.4727273,14.63 91.4727273,13.395 C91.4727273,12.255 90.5057851,11.305 89.3454545,11.305 C88.185124,11.305 87.2181818,12.255 87.2181818,13.395 C87.314876,14.63 88.185124,15.58 89.3454545,15.58 Z" id="Shape" fill="#F16622"></path>
                    <path d="M95.2438017,8.835 C95.0504132,8.455 95.3404959,8.17 95.7272727,8.17 L98.7247934,8.17 C98.9181818,8.17 99.1115702,8.265 99.2082645,8.455 L100.755372,12.065 C100.755372,12.065 100.852066,12.065 100.852066,12.065 L102.495868,8.455 C102.689256,8.17 102.882645,8.17 103.172727,8.17 L105.880165,8.17 C106.266942,8.17 106.557025,8.55 106.363636,8.835 L101.238843,18.62 C101.142149,18.715 100.94876,18.905 100.755372,18.905 L100.658678,18.905 C100.465289,18.905 100.271901,18.81 100.175207,18.62 L95.2438017,8.835 Z" id="Shape" fill="#F16622"></path>
                    <path d="M111.101653,11.97 C112.261983,11.97 113.132231,12.35 113.132231,12.35 C113.132231,11.305 112.938843,10.83 111.681818,10.83 C111.004959,10.83 109.65124,11.02 108.97438,11.21 C108.587603,11.305 108.394215,11.02 108.297521,10.64 L108.104132,9.025 C108.007438,8.55 108.297521,8.36 108.490909,8.36 C108.684298,8.265 110.618182,7.98 112.068595,7.98 C115.356198,7.98 116.613223,9.31 116.613223,12.445 L116.613223,18.24 C116.613223,18.525 116.419835,18.715 116.129752,18.715 L114.969421,18.715 C114.776033,18.715 114.582645,18.62 114.48595,18.335 L114.099174,17.67 C113.519008,18.24 112.552066,19 110.81157,19 C108.684298,19 107.13719,17.575 107.13719,15.485 C107.13719,13.49 108.587603,11.97 111.101653,11.97 Z M111.778512,16.34 C112.455372,16.34 112.938843,15.77 112.938843,15.2 C112.938843,14.63 112.358678,14.06 111.778512,14.06 C111.198347,14.06 110.618182,14.535 110.618182,15.2 C110.618182,15.865 111.101653,16.34 111.778512,16.34 Z" id="Shape" fill="#F16622"></path>
                    <path d="M62.4644628,8.075 C62.3677686,7.885 61.207438,7.885 61.1107438,7.885 C59.7570248,7.885 58.6933884,8.835 58.2099174,9.595 L57.7264463,8.455 C57.6297521,8.265 57.5330579,8.17 57.2429752,8.17 L55.9859504,8.17 C55.6958678,8.17 55.5024793,8.36 55.5024793,8.645 L55.5024793,18.145 C55.5024793,18.43 55.6958678,18.62 55.9859504,18.62 L58.6933884,18.62 C59.0801653,18.62 59.2735537,18.43 59.2735537,18.145 L59.2735537,12.73 C59.2735537,11.875 59.853719,11.305 60.6272727,11.21 C60.6272727,11.21 60.8206612,11.21 61.3041322,11.21 C61.8842975,11.305 62.3677686,11.685 62.4644628,11.4 C62.4644628,11.4 62.561157,8.265 62.4644628,8.075 Z" id="Shape" fill="#354750"></path>
                </g>
                <g id="icon" fill="#354750">
                    <path d="M11.5384615,5.70967742 C11.4423077,5.80645161 11.3461538,6 11.4423077,6.19354839 C11.8269231,6.67741935 11.9230769,7.25806452 11.9230769,7.83870968 C11.9230769,8.03225806 12.0192308,8.12903226 12.2115385,8.12903226 C12.4038462,8.12903226 12.5,8.03225806 12.5,7.83870968 C12.5,7.06451613 12.3076923,6.38709677 11.8269231,5.80645161 C11.8269231,5.61290323 11.6346154,5.61290323 11.5384615,5.70967742 Z" id="Shape"></path>
                    <path d="M24.7115385,9.87096774 C24.7115385,9.77419355 24.6153846,9.67741935 24.4230769,9.67741935 L22.6923077,9.38709677 L21.9230769,7.83870968 C21.8269231,7.74193548 21.7307692,7.64516129 21.6346154,7.64516129 C21.5384615,7.64516129 21.5384615,7.74193548 21.4423077,7.83870968 L20.6730769,9.38709677 L18.9423077,9.67741935 C18.8461538,9.67741935 18.75,9.77419355 18.6538462,9.87096774 C18.6538462,9.96774194 18.6538462,10.0645161 18.75,10.1612903 L20,11.4193548 L19.9038462,11.9032258 C19.8076923,11.9032258 19.8076923,11.9032258 19.7115385,11.9032258 C19.5192308,11.8064516 19.4230769,11.7096774 19.2307692,11.6129032 C18.9423077,11.516129 18.5576923,11.6129032 18.2692308,11.8064516 C18.0769231,12 17.9807692,12.3870968 18.0769231,12.6774194 C18.1730769,13.0645161 18.2692308,13.2580645 18.4615385,13.4516129 C18.4615385,13.4516129 18.4615385,13.5483871 18.5576923,13.5483871 C18.5576923,13.5483871 18.5576923,13.5483871 18.5576923,13.5483871 C18.2692308,13.4516129 17.9807692,13.5483871 17.8846154,13.7419355 C17.7884615,13.9354839 17.7884615,14.2258065 17.8846154,14.4193548 C17.8846154,14.4193548 17.8846154,14.4193548 17.7884615,14.516129 C17.5961538,14.516129 17.4038462,14.6129032 17.3076923,14.7096774 C16.9230769,14.516129 16.3461538,14.0322581 16.0576923,13.7419355 C15.7692308,13.4516129 15.5769231,13.2580645 15.3846154,13.1612903 C15.0961538,12.9677419 14.9038462,12.8709677 14.7115385,12.8709677 C15.3846154,12 15.9615385,11.0322581 16.1538462,9.96774194 C16.9230769,9.87096774 17.5,9.19354839 17.5,8.41935484 L17.5,7.25806452 C17.5,6.48387097 16.9230769,5.80645161 16.0576923,5.70967742 C15.0961538,2.70967742 12.3076923,0.483870968 8.94230769,0.483870968 C5.67307692,0.580645161 2.88461538,2.70967742 1.92307692,5.80645161 C1.05769231,5.90322581 0.480769231,6.58064516 0.480769231,7.25806452 L0.480769231,8.32258065 C0.480769231,9 1.05769231,9.58064516 1.82692308,9.77419355 C2.21153846,11.2258065 2.98076923,12.5806452 4.13461538,13.5483871 C3.26923077,14.1290323 2.88461538,15.483871 2.69230769,16.2580645 L2.11538462,18.3870968 C2.11538462,18.3870968 2.11538462,18.483871 2.11538462,18.483871 C1.82692308,18.3870968 1.53846154,18.5806452 1.44230769,18.7741935 C1.34615385,18.9677419 1.44230769,19.2580645 1.63461538,19.4516129 C1.34615385,19.4516129 1.15384615,19.5483871 1.05769231,19.8387097 C0.961538462,20.1290323 1.05769231,20.4193548 1.34615385,20.6129032 L1.44230769,20.6129032 C0.865384615,21.9677419 0.480769231,23.4193548 1.05769231,24.1935484 C1.44230769,24.6774194 2.01923077,24.7741935 2.88461538,24.6774194 C3.17307692,24.6774194 3.36538462,24.483871 3.55769231,24.2903226 C3.75,24 3.75,23.7096774 3.84615385,23.4193548 C3.94230769,23.4193548 4.03846154,23.4193548 4.23076923,23.4193548 L4.13461538,24.8709677 C3.94230769,24.9677419 3.75,25.1612903 3.75,25.3548387 C3.75,25.5483871 3.84615385,25.7419355 4.03846154,25.8387097 C3.84615385,25.9354839 3.75,26.1290323 3.75,26.3225806 C3.75,26.516129 3.84615385,26.7096774 4.03846154,26.8064516 L4.03846154,26.9032258 C3.84615385,27 3.65384615,27.1935484 3.65384615,27.483871 L3.65384615,28.6451613 C3.65384615,28.9354839 3.94230769,29.2258065 4.23076923,29.2258065 L7.98076923,29.2258065 C8.26923077,29.2258065 8.55769231,28.9354839 8.55769231,28.6451613 L8.55769231,27.483871 C8.55769231,27.1935484 8.36538462,27 8.17307692,26.9032258 L8.17307692,26.8064516 C8.36538462,26.7096774 8.46153846,26.516129 8.46153846,26.3225806 C8.46153846,26.1290323 8.36538462,25.9354839 8.17307692,25.8387097 C8.36538462,25.7419355 8.46153846,25.5483871 8.46153846,25.3548387 C8.46153846,25.1612903 8.36538462,24.9677419 8.17307692,24.8709677 L8.17307692,23.8064516 L9.90384615,23.8064516 L10.1923077,23.8064516 L10.1923077,24.9677419 C10,25.0645161 9.90384615,25.2580645 9.90384615,25.4516129 C9.90384615,25.6451613 10,25.8387097 10.1923077,25.9354839 C10,26.0322581 9.90384615,26.2258065 9.90384615,26.4193548 C9.90384615,26.6129032 10,26.8064516 10.1923077,26.9032258 L10.1923077,27 C10,27.0967742 9.80769231,27.2903226 9.80769231,27.5806452 L9.80769231,28.7419355 C9.80769231,29.0322581 10.0961538,29.3225806 10.3846154,29.3225806 L14.1346154,29.3225806 C14.4230769,29.3225806 14.7115385,29.0322581 14.7115385,28.7419355 L14.7115385,27.5806452 C14.7115385,27.2903226 14.5192308,27.0967742 14.3269231,27 L14.3269231,26.9032258 C14.5192308,26.8064516 14.6153846,26.6129032 14.6153846,26.4193548 C14.6153846,26.2258065 14.5192308,26.0322581 14.3269231,25.9354839 C14.5192308,25.8387097 14.6153846,25.6451613 14.6153846,25.4516129 C14.6153846,25.1612903 14.4230769,24.9677419 14.2307692,24.8709677 L14.1346154,23.516129 L14.1346154,23.516129 C14.0384615,16.7419355 14.3269231,17.516129 14.7115385,17.7096774 C15.1923077,17.9032258 16.8269231,18.9677419 17.5,18.9677419 C18.6538462,19.0645161 19.1346154,18.5806452 20.0961538,17.2258065 C20.0961538,17.2258065 20.0961538,17.2258065 20.0961538,17.2258065 L20.1923077,17.2258065 C20.4807692,17.4193548 20.7692308,17.3225806 20.9615385,17.0322581 C21.1538462,16.7419355 21.0576923,16.4516129 20.8653846,16.2580645 C21.1538462,16.3548387 21.3461538,16.2580645 21.5384615,15.9677419 C21.7307692,15.6774194 21.6346154,15.3870968 21.3461538,15.1935484 L21.3461538,15.1935484 C21.5384615,15 21.6346154,14.8064516 21.8269231,14.7096774 C22.2115385,14.516129 22.5,14.3225806 22.7884615,14.1290323 C23.5576923,13.6451613 24.1346154,13.3548387 24.0384615,12.483871 C24.0384615,12.1935484 23.8461538,12 23.5576923,11.8064516 L23.4615385,11.4193548 L24.7115385,10.1612903 C24.7115385,10.0645161 24.8076923,9.96774194 24.7115385,9.87096774 Z M13.1730769,9.67741935 C12.4038462,10.4516129 11.1538462,10.4516129 9.61538462,10.4516129 C9.51923077,10.4516129 9.32692308,10.4516129 9.23076923,10.4516129 L8.84615385,10.4516129 L8.46153846,10.4516129 C6.92307692,10.4516129 5.48076923,10.4516129 4.71153846,9.67741935 C4.42307692,9.29032258 4.13461538,8.61290323 4.13461538,7.74193548 C4.13461538,5.03225806 6.34615385,2.90322581 8.94230769,2.90322581 C11.5384615,2.90322581 13.75,5.12903226 13.75,7.74193548 C13.8461538,8.61290323 13.6538462,9.19354839 13.1730769,9.67741935 Z M23.75,10.1612903 L22.8846154,11.0322581 C22.7884615,11.1290323 22.7884615,11.2258065 22.7884615,11.3225806 L22.7884615,11.4193548 L22.9807692,12.483871 C22.9807692,12.483871 22.9807692,12.5806452 22.8846154,12.483871 L21.8269231,11.9032258 C21.7307692,11.9032258 21.6346154,11.9032258 21.5384615,11.9032258 L20.4807692,12.483871 C20.4807692,12.483871 20.3846154,12.483871 20.3846154,12.483871 L20.5769231,11.3225806 C20.5769231,11.3225806 20.5769231,11.3225806 20.5769231,11.3225806 C20.5769231,11.2258065 20.5769231,11.1290323 20.4807692,11.1290323 L19.6153846,10.2580645 C19.6153846,10.2580645 19.6153846,10.1612903 19.6153846,10.1612903 L20.7692308,9.96774194 C20.8653846,9.96774194 20.9615385,9.87096774 20.9615385,9.77419355 L21.7307692,8.70967742 C21.7307692,8.70967742 21.8269231,8.70967742 21.8269231,8.70967742 L22.3076923,9.77419355 C22.3076923,9.87096774 22.4038462,9.96774194 22.5,9.96774194 L23.75,10.1612903 C23.75,10.1612903 23.75,10.1612903 23.75,10.1612903 Z" id="Shape"></path>
                </g>
            </g>
        </g>
    </g>
</svg>