<?xml version="1.0" encoding="UTF-8"?>
<svg width="29px" height="29px" viewBox="0 0 29 29" version="1.1" xmlns="http://www.w3.org/2000/svg" xmlns:xlink="http://www.w3.org/1999/xlink">
    <!-- Generator: Sketch 47.1 (45422) - http://www.bohemiancoding.com/sketch -->
    <title>logo</title>
    <desc>Created with Sketch.</desc>
    <defs></defs>
    <g id="Symbols" stroke="none" stroke-width="1" fill="none" fill-rule="evenodd">
        <g id="logo/small/logo-small-color">
            <g id="logo">
                <circle id="bg" fill="#FF6600" cx="14.5" cy="14.5" r="14.5"></circle>
                <g id="icon" transform="translate(7.000000, 4.000000)" fill-rule="nonzero" fill="#FFFFFF">
                    <path d="M8.30769231,4.11096774 C8.23846154,4.18064516 8.16923077,4.32 8.23846154,4.45935484 C8.51538462,4.80774194 8.58461538,5.22580645 8.58461538,5.64387097 C8.58461538,5.78322581 8.65384615,5.85290323 8.79230769,5.85290323 C8.93076923,5.85290323 9,5.78322581 9,5.64387097 C9,5.08645161 8.86153846,4.59870968 8.51538462,4.18064516 C8.51538462,4.04129032 8.37692308,4.04129032 8.30769231,4.11096774 Z" id="Shape"></path>
                    <path d="M17.7923077,7.10709677 C17.7923077,7.03741935 17.7230769,6.96774194 17.5846154,6.96774194 L16.3384615,6.75870968 L15.7846154,5.64387097 C15.7153846,5.57419355 15.6461538,5.50451613 15.5769231,5.50451613 C15.5076923,5.50451613 15.5076923,5.57419355 15.4384615,5.64387097 L14.8846154,6.75870968 L13.6384615,6.96774194 C13.5692308,6.96774194 13.5,7.03741935 13.4307692,7.10709677 C13.4307692,7.17677419 13.4307692,7.24645161 13.5,7.31612903 L14.4,8.22193548 L14.3307692,8.57032258 C14.2615385,8.57032258 14.2615385,8.57032258 14.1923077,8.57032258 C14.0538462,8.50064516 13.9846154,8.43096774 13.8461538,8.36129032 C13.6384615,8.2916129 13.3615385,8.36129032 13.1538462,8.50064516 C13.0153846,8.64 12.9461538,8.91870968 13.0153846,9.12774194 C13.0846154,9.40645161 13.1538462,9.54580645 13.2923077,9.68516129 C13.2923077,9.68516129 13.2923077,9.75483871 13.3615385,9.75483871 C13.3615385,9.75483871 13.3615385,9.75483871 13.3615385,9.75483871 C13.1538462,9.68516129 12.9461538,9.75483871 12.8769231,9.89419355 C12.8076923,10.0335484 12.8076923,10.2425806 12.8769231,10.3819355 C12.8769231,10.3819355 12.8769231,10.3819355 12.8076923,10.4516129 C12.6692308,10.4516129 12.5307692,10.5212903 12.4615385,10.5909677 C12.1846154,10.4516129 11.7692308,10.1032258 11.5615385,9.89419355 C11.3538462,9.68516129 11.2153846,9.54580645 11.0769231,9.47612903 C10.8692308,9.33677419 10.7307692,9.26709677 10.5923077,9.26709677 C11.0769231,8.64 11.4923077,7.94322581 11.6307692,7.17677419 C12.1846154,7.10709677 12.6,6.61935484 12.6,6.06193548 L12.6,5.22580645 C12.6,4.6683871 12.1846154,4.18064516 11.5615385,4.11096774 C10.8692308,1.95096774 8.86153846,0.348387097 6.43846154,0.348387097 C4.08461538,0.418064516 2.07692308,1.95096774 1.38461538,4.18064516 C0.761538462,4.25032258 0.346153846,4.73806452 0.346153846,5.22580645 L0.346153846,5.99225806 C0.346153846,6.48 0.761538462,6.89806452 1.31538462,7.03741935 C1.59230769,8.08258065 2.14615385,9.05806452 2.97692308,9.75483871 C2.35384615,10.1729032 2.07692308,11.1483871 1.93846154,11.7058065 L1.52307692,13.2387097 C1.52307692,13.2387097 1.52307692,13.3083871 1.52307692,13.3083871 C1.31538462,13.2387097 1.10769231,13.3780645 1.03846154,13.5174194 C0.969230769,13.6567742 1.03846154,13.8658065 1.17692308,14.0051613 C0.969230769,14.0051613 0.830769231,14.0748387 0.761538462,14.283871 C0.692307692,14.4929032 0.761538462,14.7019355 0.969230769,14.8412903 L1.03846154,14.8412903 C0.623076923,15.8167742 0.346153846,16.8619355 0.761538462,17.4193548 C1.03846154,17.7677419 1.45384615,17.8374194 2.07692308,17.7677419 C2.28461538,17.7677419 2.42307692,17.6283871 2.56153846,17.4890323 C2.7,17.28 2.7,17.0709677 2.76923077,16.8619355 C2.83846154,16.8619355 2.90769231,16.8619355 3.04615385,16.8619355 L2.97692308,17.9070968 C2.83846154,17.9767742 2.7,18.116129 2.7,18.2554839 C2.7,18.3948387 2.76923077,18.5341935 2.90769231,18.603871 C2.76923077,18.6735484 2.7,18.8129032 2.7,18.9522581 C2.7,19.0916129 2.76923077,19.2309677 2.90769231,19.3006452 L2.90769231,19.3703226 C2.76923077,19.44 2.63076923,19.5793548 2.63076923,19.7883871 L2.63076923,20.6245161 C2.63076923,20.8335484 2.83846154,21.0425806 3.04615385,21.0425806 L5.74615385,21.0425806 C5.95384615,21.0425806 6.16153846,20.8335484 6.16153846,20.6245161 L6.16153846,19.7883871 C6.16153846,19.5793548 6.02307692,19.44 5.88461538,19.3703226 L5.88461538,19.3006452 C6.02307692,19.2309677 6.09230769,19.0916129 6.09230769,18.9522581 C6.09230769,18.8129032 6.02307692,18.6735484 5.88461538,18.603871 C6.02307692,18.5341935 6.09230769,18.3948387 6.09230769,18.2554839 C6.09230769,18.116129 6.02307692,17.9767742 5.88461538,17.9070968 L5.88461538,17.1406452 L7.13076923,17.1406452 L7.33846154,17.1406452 L7.33846154,17.9767742 C7.2,18.0464516 7.13076923,18.1858065 7.13076923,18.3251613 C7.13076923,18.4645161 7.2,18.603871 7.33846154,18.6735484 C7.2,18.7432258 7.13076923,18.8825806 7.13076923,19.0219355 C7.13076923,19.1612903 7.2,19.3006452 7.33846154,19.3703226 L7.33846154,19.44 C7.2,19.5096774 7.06153846,19.6490323 7.06153846,19.8580645 L7.06153846,20.6941935 C7.06153846,20.9032258 7.26923077,21.1122581 7.47692308,21.1122581 L10.1769231,21.1122581 C10.3846154,21.1122581 10.5923077,20.9032258 10.5923077,20.6941935 L10.5923077,19.8580645 C10.5923077,19.6490323 10.4538462,19.5096774 10.3153846,19.44 L10.3153846,19.3703226 C10.4538462,19.3006452 10.5230769,19.1612903 10.5230769,19.0219355 C10.5230769,18.8825806 10.4538462,18.7432258 10.3153846,18.6735484 C10.4538462,18.603871 10.5230769,18.4645161 10.5230769,18.3251613 C10.5230769,18.116129 10.3846154,17.9767742 10.2461538,17.9070968 L10.1769231,16.9316129 L10.1769231,16.9316129 C10.1076923,12.0541935 10.3153846,12.6116129 10.5923077,12.7509677 C10.9384615,12.8903226 12.1153846,13.6567742 12.6,13.6567742 C13.4307692,13.7264516 13.7769231,13.3780645 14.4692308,12.4025806 C14.4692308,12.4025806 14.4692308,12.4025806 14.4692308,12.4025806 L14.5384615,12.4025806 C14.7461538,12.5419355 14.9538462,12.4722581 15.0923077,12.2632258 C15.2307692,12.0541935 15.1615385,11.8451613 15.0230769,11.7058065 C15.2307692,11.7754839 15.3692308,11.7058065 15.5076923,11.4967742 C15.6461538,11.2877419 15.5769231,11.0787097 15.3692308,10.9393548 L15.3692308,10.9393548 C15.5076923,10.8 15.5769231,10.6606452 15.7153846,10.5909677 C15.9923077,10.4516129 16.2,10.3122581 16.4076923,10.1729032 C16.9615385,9.82451613 17.3769231,9.61548387 17.3076923,8.9883871 C17.3076923,8.77935484 17.1692308,8.64 16.9615385,8.50064516 L16.8923077,8.22193548 L17.7923077,7.31612903 C17.7923077,7.24645161 17.8615385,7.17677419 17.7923077,7.10709677 Z M9.48461538,6.96774194 C8.93076923,7.52516129 8.03076923,7.52516129 6.92307692,7.52516129 C6.85384615,7.52516129 6.71538462,7.52516129 6.64615385,7.52516129 L6.36923077,7.52516129 L6.09230769,7.52516129 C4.98461538,7.52516129 3.94615385,7.52516129 3.39230769,6.96774194 C3.18461538,6.68903226 2.97692308,6.20129032 2.97692308,5.57419355 C2.97692308,3.62322581 4.56923077,2.09032258 6.43846154,2.09032258 C8.30769231,2.09032258 9.9,3.69290323 9.9,5.57419355 C9.96923077,6.20129032 9.83076923,6.61935484 9.48461538,6.96774194 Z M17.1,7.31612903 L16.4769231,7.94322581 C16.4076923,8.01290323 16.4076923,8.08258065 16.4076923,8.15225806 L16.4076923,8.22193548 L16.5461538,8.9883871 C16.5461538,8.9883871 16.5461538,9.05806452 16.4769231,8.9883871 L15.7153846,8.57032258 C15.6461538,8.57032258 15.5769231,8.57032258 15.5076923,8.57032258 L14.7461538,8.9883871 C14.7461538,8.9883871 14.6769231,8.9883871 14.6769231,8.9883871 L14.8153846,8.15225806 C14.8153846,8.15225806 14.8153846,8.15225806 14.8153846,8.15225806 C14.8153846,8.08258065 14.8153846,8.01290323 14.7461538,8.01290323 L14.1230769,7.38580645 C14.1230769,7.38580645 14.1230769,7.31612903 14.1230769,7.31612903 L14.9538462,7.17677419 C15.0230769,7.17677419 15.0923077,7.10709677 15.0923077,7.03741935 L15.6461538,6.27096774 C15.6461538,6.27096774 15.7153846,6.27096774 15.7153846,6.27096774 L16.0615385,7.03741935 C16.0615385,7.10709677 16.1307692,7.17677419 16.2,7.17677419 L17.1,7.31612903 C17.1,7.31612903 17.1,7.31612903 17.1,7.31612903 Z" id="Shape"></path>
                </g>
            </g>
        </g>
    </g>
</svg>